<?xml version="1.0" encoding="UTF-8" standalone="no" ?>
<!DOCTYPE svg PUBLIC "-//W3C//DTD SVG 1.1//EN" "http://www.w3.org/Graphics/SVG/1.1/DTD/svg11.dtd">
<svg xmlns="http://www.w3.org/2000/svg" xmlns:xlink="http://www.w3.org/1999/xlink" version="1.1" width="1280" height="1024" viewBox="0 0 1280 1024" xml:space="preserve">
<desc>Created with Fabric.js 4.4.0</desc>
<defs>
</defs>
<g transform="matrix(1 0 0 1 640 512)" id="background-logo"  >
<rect style="stroke: none; stroke-width: 0; stroke-dasharray: none; stroke-linecap: butt; stroke-dashoffset: 0; stroke-linejoin: miter; stroke-miterlimit: 4; fill: rgb(255,255,255); fill-opacity: 0; fill-rule: nonzero; opacity: 1;"  paint-order="stroke"  x="-640" y="-512" rx="0" ry="0" width="1280" height="1024" />
</g>
<g transform="matrix(1.9211538461538462 0 0 1.9211538461538462 751.500102396068 485.6546557505584)" id="logo-logo"  >
<g style=""  paint-order="stroke"   >
		<g transform="matrix(1.0523124112221898 0 0 1.4516542081871742 0 -5.684342e-14)"  >
<g style=""  paint-order="stroke"   >
		<g transform="matrix(1 0 0 1 0 0)"  >
<linearGradient id="SVGID_24_10_362008" gradientUnits="userSpaceOnUse" gradientTransform="matrix(1 0 0 1 -100 -50)"  x1="0" y1="0" x2="0" y2="100">
<stop offset="0%" style="stop-color:rgb(91,36,122);stop-opacity: 1"/>
<stop offset="100%" style="stop-color:rgb(27,206,223);stop-opacity: 1"/>
</linearGradient>
<polygon style="stroke: none; stroke-width: 1; stroke-dasharray: none; stroke-linecap: butt; stroke-dashoffset: 0; stroke-linejoin: miter; stroke-miterlimit: 4; fill: url(#SVGID_24_10_362008); fill-rule: nonzero; opacity: 1;"  paint-order="stroke"  points="100,-50 -100,-50 -100,50 100,50 100,-50 100,-50 " />
</g>
</g>
</g>
		<g transform="matrix(0.157947870116602 0 0 -0.157947870116602 -0.0002369218050262134 0.0033169052724417725)"  >
<path style="stroke: none; stroke-width: 1; stroke-dasharray: none; stroke-linecap: butt; stroke-dashoffset: 0; stroke-linejoin: miter; stroke-miterlimit: 4; fill: rgb(240,57,32); fill-rule: nonzero; opacity: 1;"  paint-order="stroke"  transform=" translate(-1625, -1299.98)" d="M 1624.88 1494.56 C 1732.3600000000001 1494.56 1819.5700000000002 1407.36 1819.5700000000002 1299.8799999999999 C 1819.5700000000002 1192.6299999999999 1732.3600000000001 1105.3999999999999 1624.88 1105.3999999999999 C 1517.64 1105.3999999999999 1430.43 1192.6299999999999 1430.43 1299.8799999999999 C 1430.43 1407.36 1517.64 1494.56 1624.88 1494.56" stroke-linecap="round" />
</g>
		<g transform="matrix(0.157947870116602 0 0 -0.157947870116602 109.00590616046651 26.829025218005967)"  >
<linearGradient id="SVGID_25_11_362009" gradientUnits="userSpaceOnUse" gradientTransform="matrix(694.961 0 0 -1316.11 1967.66 1788.19)"  x1="0" y1="0" x2="1" y2="0">
<stop offset="0%" style="stop-color:rgb(100,199,124);stop-opacity: 1"/>
<stop offset="31.505100000000002%" style="stop-color:rgb(58,186,127);stop-opacity: 1"/>
<stop offset="41.764456%" style="stop-color:rgb(58,186,127);stop-opacity: 1"/>
<stop offset="100%" style="stop-color:rgb(55,140,146);stop-opacity: 1"/>
</linearGradient>
<path style="stroke: none; stroke-width: 1; stroke-dasharray: none; stroke-linecap: butt; stroke-dashoffset: 0; stroke-linejoin: miter; stroke-miterlimit: 4; fill: url(#SVGID_25_11_362009); fill-rule: nonzero; opacity: 1;"  paint-order="stroke"  transform=" translate(-2315.14, -1130.141)" d="M 2662.62 1475.64 L 2662.62 1395.3000000000002 C 2662.62 1218.5900000000001 2575.68 1121.3400000000001 2397.59 1099.6600000000003 L 2397.59 574.563 C 2397.59 529.055 2360.61 492.082 2315.13 492.082 C 2269.4300000000003 492.082 2232.69 529.055 2232.69 574.563 L 2232.69 711.887 C 2126.68 724.8359999999999 2052.9300000000003 764.406 2010.77 831.77 C 1981.8 877.512 1967.66 935.91 1967.66 1007.53 L 1967.66 1087.86 C 1967.66 1133.57 2004.41 1170.32 2050.11 1170.32 C 2095.57 1170.32 2132.55 1133.57 2132.55 1087.86 L 2132.55 1007.5299999999999 C 2132.55 945.5589999999999 2132.55 894.4449999999998 2232.69 877.7269999999999 L 2232.69 1685.75 C 2232.69 1731.2 2269.43 1768.2 2315.13 1768.2 C 2360.61 1768.2 2397.59 1731.2 2397.59 1685.75 L 2397.59 1265.5 C 2497.48 1281.98 2497.7000000000003 1333.33 2497.7000000000003 1395.3 L 2497.7000000000003 1475.6399999999999 C 2497.7000000000003 1521.32 2534.4600000000005 1558.08 2580.15 1558.08 C 2625.63 1558.08 2662.62 1521.32 2662.62 1475.6399999999999" stroke-linecap="round" />
</g>
		<g transform="matrix(0.157947870116602 0 0 -0.157947870116602 -109.00535334292107 -26.826498052084162)"  >
<linearGradient id="SVGID_26_12_362010" gradientUnits="userSpaceOnUse" gradientTransform="matrix(694.966 0 0 -1316.15 587.383 2127.92)"  x1="0" y1="0" x2="1" y2="0">
<stop offset="0%" style="stop-color:rgb(55,140,146);stop-opacity: 1"/>
<stop offset="58.235544%" style="stop-color:rgb(58,186,127);stop-opacity: 1"/>
<stop offset="68.4949%" style="stop-color:rgb(58,186,127);stop-opacity: 1"/>
<stop offset="100%" style="stop-color:rgb(100,199,124);stop-opacity: 1"/>
</linearGradient>
<path style="stroke: none; stroke-width: 1; stroke-dasharray: none; stroke-linecap: butt; stroke-dashoffset: 0; stroke-linejoin: miter; stroke-miterlimit: 4; fill: url(#SVGID_26_12_362010); fill-rule: nonzero; opacity: 1;"  paint-order="stroke"  transform=" translate(-934.8664999999999, -1469.845)" d="M 1239.23 1768.2 C 1268.21 1722.49 1282.35 1664.1100000000001 1282.35 1592.47 L 1282.35 1512.14 C 1282.35 1466.46 1245.59 1429.7 1199.8999999999999 1429.7 C 1154.4399999999998 1429.7 1117.4499999999998 1466.46 1117.4499999999998 1512.14 L 1117.4499999999998 1592.47 C 1117.4499999999998 1654.43 1117.4499999999998 1705.54 1017.3199999999998 1722.28 L 1017.3199999999998 914.211 C 1017.3199999999998 868.7810000000001 980.5659999999998 831.77 934.8709999999999 831.77 C 889.3979999999999 831.77 852.4019999999998 868.781 852.4019999999998 914.211 L 852.4019999999998 1334.52 C 752.5269999999998 1318.02 752.2969999999998 1266.65 752.2969999999998 1204.7 L 752.2969999999998 1124.3500000000001 C 752.2969999999998 1078.68 715.5429999999998 1041.93 669.8479999999998 1041.93 C 624.3749999999999 1041.93 587.3829999999998 1078.68 587.3829999999998 1124.3500000000001 L 587.3829999999998 1204.7 C 587.3829999999998 1381.4 674.3199999999998 1478.7 852.4019999999998 1500.38 L 852.4019999999998 2025.48 C 852.4019999999998 2070.93 889.3979999999998 2107.92 934.8709999999999 2107.92 C 980.5659999999999 2107.92 1017.3199999999998 2070.9300000000003 1017.3199999999998 2025.48 L 1017.3199999999998 1888.12 C 1123.33 1875.1499999999999 1197.0699999999997 1835.62 1239.2299999999998 1768.1999999999998" stroke-linecap="round" />
</g>
		<g transform="matrix(0.157947870116602 0 0 -0.157947870116602 6.5095845450507 -45.11686141158674)"  >
<linearGradient id="SVGID_27_13_362011" gradientUnits="userSpaceOnUse" gradientTransform="matrix(1 0 0 1 1017.3000000000002 1249.93)"  x1="0" y1="0" x2="0" y2="671">
<stop offset="0%" style="stop-color:rgb(250,217,97);stop-opacity: 1"/>
<stop offset="100%" style="stop-color:rgb(247,107,28);stop-opacity: 1"/>
</linearGradient>
<path style="stroke: none; stroke-width: 1; stroke-dasharray: none; stroke-linecap: butt; stroke-dashoffset: 0; stroke-linejoin: miter; stroke-miterlimit: 4; fill: url(#SVGID_27_13_362011); fill-rule: nonzero; opacity: 1;"  paint-order="stroke"  transform=" translate(-1666.2150000000001, -1585.6450000000002)" d="M 1945.97 1768.2 L 2315.13 1768.2 C 2269.4300000000003 1768.2 2232.67 1731.2 2232.67 1685.75 L 2232.67 1367.77 C 2150.91 1385.85 2043.48 1381.6299999999999 1921.46 1367.02 C 1890.8400000000001 1502.75 1769.74 1604.02 1624.8700000000001 1604.02 C 1457.13 1604.02 1320.96 1467.84 1320.96 1299.88 C 1320.96 1291.16 1321.44 1282.45 1322.15 1273.74 C 1217.0700000000002 1259.6 1113.88 1249.93 1017.3000000000001 1249.93 L 1017.3000000000001 1722.2800000000002 C 1117.42 1705.5400000000002 1117.42 1654.4300000000003 1117.42 1592.4700000000003 L 1117.42 1512.1400000000003 C 1117.42 1466.4600000000003 1154.42 1429.7000000000003 1199.88 1429.7000000000003 C 1245.5900000000001 1429.7000000000003 1282.3200000000002 1466.4600000000003 1282.3200000000002 1512.1400000000003 L 1282.3200000000002 1592.4700000000003 C 1282.3200000000002 1664.1100000000004 1268.19 1722.4900000000002 1239.2300000000002 1768.2000000000003 L 1239.4500000000003 1768.2000000000003 L 1304.0200000000002 1768.2000000000003 L 1445.3600000000001 1921.3600000000004 L 1624.8700000000001 1921.3600000000004 L 1804.6200000000001 1921.3600000000004 z M 2155.64 1570.56 L 2155.64 1631.1299999999999 C 2155.64 1641.26 2147.39 1649.6999999999998 2137.02 1649.6999999999998 L 2025.34 1649.6999999999998 C 2014.98 1649.6999999999998 2006.5 1641.2599999999998 2006.5 1631.1299999999999 L 2006.5 1570.56 C 2006.5 1560.19 2014.98 1551.96 2025.34 1551.96 L 2137.02 1551.96 C 2147.39 1551.96 2155.64 1560.19 2155.64 1570.56" stroke-linecap="round" />
</g>
		<g transform="matrix(0.157947870116602 0 0 -0.157947870116602 87.99804969560796 48.70598983818127)"  >
<linearGradient id="SVGID_28_14_362012" gradientUnits="userSpaceOnUse" gradientTransform="matrix(-0.00002 -404.424 -141.069 0.00001 2252.67 1106.01)"  x1="0" y1="0" x2="1" y2="0">
<stop offset="0%" style="stop-color:rgb(206,29,44);stop-opacity: 1"/>
<stop offset="100%" style="stop-color:rgb(163,28,35);stop-opacity: 1"/>
</linearGradient>
<path style="stroke: none; stroke-width: 1; stroke-dasharray: none; stroke-linecap: butt; stroke-dashoffset: 0; stroke-linejoin: miter; stroke-miterlimit: 4; fill: url(#SVGID_28_14_362012); fill-rule: nonzero; opacity: 1;"  paint-order="stroke"  transform=" translate(-2182.135, -991.6334999999999)" d="M 2232.67 1105.54 L 2232.67 877.727 C 2132.55 894.4449999999999 2132.55 945.559 2132.55 1007.53 L 2132.55 1087.86 C 2132.55 1091.87 2132.3 1095.6799999999998 2131.6000000000004 1099.4099999999999 C 2167.1700000000005 1103.4099999999999 2201.1100000000006 1105.54 2232.6700000000005 1105.54" stroke-linecap="round" />
</g>
		<g transform="matrix(0.157947870116602 0 0 -0.157947870116602 70.6032507596666 3.01191206436431)"  >
<linearGradient id="SVGID_29_15_362013" gradientUnits="userSpaceOnUse" gradientTransform="matrix(-0.00003 -742.135 -361.328 0.00002 2252.67 1431.87)"  x1="0" y1="0" x2="1" y2="0">
<stop offset="0%" style="stop-color:rgb(247,150,16);stop-opacity: 1"/>
<stop offset="53.0313%" style="stop-color:rgb(241,71,29);stop-opacity: 1"/>
<stop offset="58.260433%" style="stop-color:rgb(241,71,29);stop-opacity: 1"/>
<stop offset="100%" style="stop-color:rgb(214,40,39);stop-opacity: 1"/>
</linearGradient>
<path style="stroke: none; stroke-width: 1; stroke-dasharray: none; stroke-linecap: butt; stroke-dashoffset: 0; stroke-linejoin: miter; stroke-miterlimit: 4; fill: url(#SVGID_29_15_362013); fill-rule: nonzero; opacity: 1;"  paint-order="stroke"  transform=" translate(-2072.005, -1280.931973857762)" d="M 2232.67 1367.77 L 2232.67 1182.1399999999999 C 2129.02 1182.1399999999999 2022.0700000000002 1190.09 1911.3400000000001 1197.86 C 1922.8700000000001 1229.6599999999999 1929.0000000000002 1264.07 1929.0000000000002 1299.8799999999999 C 1929.0000000000002 1322.9799999999998 1926.4100000000003 1345.34 1921.4600000000003 1367.02 C 2043.4800000000002 1381.6299999999999 2150.9100000000003 1385.85 2232.67 1367.77" stroke-linecap="round" />
</g>
		<g transform="matrix(0.157947870116602 0 0 -0.157947870116602 -24.039507883876638 54.885463334688154)"  >
<linearGradient id="SVGID_30_16_362014" gradientUnits="userSpaceOnUse" gradientTransform="matrix(-0.00002 -404.433 -1115.9 0.00005 2030.75 1106.01)"  x1="0" y1="0" x2="1" y2="0">
<stop offset="0%" style="stop-color:rgb(206,29,44);stop-opacity: 1"/>
<stop offset="100%" style="stop-color:rgb(163,28,35);stop-opacity: 1"/>
</linearGradient>
<path style="stroke: none; stroke-width: 1; stroke-dasharray: none; stroke-linecap: butt; stroke-dashoffset: 0; stroke-linejoin: miter; stroke-miterlimit: 4; fill: url(#SVGID_30_16_362014); fill-rule: nonzero; opacity: 1;"  paint-order="stroke"  transform=" translate(-1472.8025, -952.5099999999998)" d="M 2010.75 831.77 L 934.855 831.77 C 980.566 831.77 1017.3 868.781 1017.3 914.211 C 1181.74 891.848 1408.3799999999999 941.809 1634.77 996.203 C 1677.87 997.434 1718.86 1007.77 1755.62 1025.3999999999999 C 1755.62 1025.3999999999999 1755.62 1025.6999999999998 1755.84 1025.3999999999999 C 1828.4099999999999 1043.1 1899.55 1059.58 1967.6399999999999 1073.2499999999998 L 1967.6399999999999 1007.5299999999997 C 1967.6399999999999 935.9099999999997 1981.79 877.5119999999997 2010.7499999999998 831.7699999999998" stroke-linecap="round" />
</g>
		<g transform="matrix(0.157947870116602 0 0 -0.157947870116602 58.32280385810077 29.75279824173441)"  >
<linearGradient id="SVGID_31_17_362015" gradientUnits="userSpaceOnUse" gradientTransform="matrix(-0.00003 -644.052 -516.821 0.00002 2252.67 1357.28)"  x1="0" y1="0" x2="1" y2="0">
<stop offset="0%" style="stop-color:rgb(242,88,26);stop-opacity: 1"/>
<stop offset="53.0313%" style="stop-color:rgb(238,35,36);stop-opacity: 1"/>
<stop offset="58.260433%" style="stop-color:rgb(238,35,36);stop-opacity: 1"/>
<stop offset="100%" style="stop-color:rgb(210,22,113);stop-opacity: 1"/>
</linearGradient>
<path style="stroke: none; stroke-width: 1; stroke-dasharray: none; stroke-linecap: butt; stroke-dashoffset: 0; stroke-linejoin: miter; stroke-miterlimit: 4; fill: url(#SVGID_31_17_362015); fill-rule: nonzero; opacity: 1;"  paint-order="stroke"  transform=" translate(-1994.2549999999999, -1111.63)" d="M 1911.34 1197.86 C 2022.07 1190.09 2129.02 1182.1399999999999 2232.67 1182.1399999999999 L 2232.67 1105.54 C 2201.11 1105.54 2167.17 1103.4099999999999 2131.6 1099.4099999999999 C 2126.19 1139.6999999999998 2091.5499999999997 1170.32 2050.0899999999997 1170.32 C 2004.3899999999996 1170.32 1967.6399999999996 1133.57 1967.6399999999996 1087.86 L 1967.6399999999996 1073.25 C 1899.5499999999997 1059.58 1828.4099999999996 1043.1 1755.8399999999997 1025.4 C 1827.9499999999996 1060.0700000000002 1884.2499999999998 1122.02 1911.3399999999997 1197.8600000000001" stroke-linecap="round" />
</g>
		<g transform="matrix(0.157947870116602 0 0 -0.157947870116602 -47.22112191121505 38.79752935739651)"  >
<linearGradient id="SVGID_32_18_362016" gradientUnits="userSpaceOnUse" gradientTransform="matrix(-0.00003 -644.062 -657.466 0.00003 1654.77 1357.29)"  x1="0" y1="0" x2="1" y2="0">
<stop offset="0%" style="stop-color:rgb(242,88,26);stop-opacity: 1"/>
<stop offset="53.0313%" style="stop-color:rgb(238,35,36);stop-opacity: 1"/>
<stop offset="58.260433%" style="stop-color:rgb(238,35,36);stop-opacity: 1"/>
<stop offset="100%" style="stop-color:rgb(210,22,113);stop-opacity: 1"/>
</linearGradient>
<path style="stroke: none; stroke-width: 1; stroke-dasharray: none; stroke-linecap: butt; stroke-dashoffset: 0; stroke-linejoin: miter; stroke-miterlimit: 4; fill: url(#SVGID_32_18_362016); fill-rule: nonzero; opacity: 1;"  paint-order="stroke"  transform=" translate(-1326.0349999999999, -1054.36597289419)" d="M 1624.87 995.988 C 1628.1599999999999 995.988 1631.4599999999998 995.988 1634.77 996.2030000000001 C 1408.38 941.8090000000001 1181.74 891.8480000000001 1017.3 914.2110000000001 L 1017.3 1130.2700000000002 C 1126.86 1166.5500000000002 1233.81 1188.2100000000003 1337.9299999999998 1199.9900000000002 C 1379.1599999999999 1081.2600000000002 1492.2299999999998 995.9880000000003 1624.87 995.9880000000003" stroke-linecap="round" />
</g>
		<g transform="matrix(0.157947870116602 0 0 -0.157947870116602 -70.66374479392107 15.478259479946502)"  >
<linearGradient id="SVGID_33_19_362017" gradientUnits="userSpaceOnUse" gradientTransform="matrix(-0.00003 -742.399 -360.62 0.00002 1357.92 1431.91)"  x1="0" y1="0" x2="1" y2="0">
<stop offset="0%" style="stop-color:rgb(247,150,16);stop-opacity: 1"/>
<stop offset="53.0313%" style="stop-color:rgb(241,71,29);stop-opacity: 1"/>
<stop offset="58.260433%" style="stop-color:rgb(241,71,29);stop-opacity: 1"/>
<stop offset="100%" style="stop-color:rgb(214,40,39);stop-opacity: 1"/>
</linearGradient>
<path style="stroke: none; stroke-width: 1; stroke-dasharray: none; stroke-linecap: butt; stroke-dashoffset: 0; stroke-linejoin: miter; stroke-miterlimit: 4; fill: url(#SVGID_33_19_362017); fill-rule: nonzero; opacity: 1;"  paint-order="stroke"  transform=" translate(-1177.615, -1202.005)" d="M 1322.15 1273.74 C 1324.27 1248.08 1329.7 1223.35 1337.93 1199.99 C 1233.81 1188.21 1126.8600000000001 1166.55 1017.3000000000001 1130.27 L 1017.3000000000001 1249.93 C 1113.88 1249.93 1217.0700000000002 1259.6000000000001 1322.15 1273.74" stroke-linecap="round" />
</g>
</g>
</g>
<g transform="matrix(1.9211538461538462 0 0 1.9211538461538462 741.1094401870931 674.5710599523122)" id="text-logo-path-group"  >
<g style=""  paint-order="stroke"   >
		<g transform="matrix(1 0 0 1 0 0)" id="text-logo-path-0"  >
<linearGradient id="SVGID_362018" gradientUnits="userSpaceOnUse" gradientTransform="matrix(1 0 0 1 1.8199999999999932 -41.49)"  x1="0" y1="0" x2="0" y2="69">
<stop offset="0%" style="stop-color:rgb(91,36,122);stop-opacity: 1"/>
<stop offset="100%" style="stop-color:rgb(27,206,223);stop-opacity: 1"/>
</linearGradient>
<path style="stroke: none; stroke-width: 0; stroke-dasharray: none; stroke-linecap: butt; stroke-dashoffset: 0; stroke-linejoin: miter; stroke-miterlimit: 4; fill: url(#SVGID_362018); fill-rule: nonzero; opacity: 1;"  paint-order="stroke"  transform=" translate(-83.265, 19.555)" d="M 1.85 -5.03 L 1.85 -5.03 Q 1.85 -5.36 1.82 -5.66 L 1.82 -5.66 Q 1.82 -11.11 2.08 -12.27 L 2.08 -12.27 Q 2.26 -12.81 4.21 -13.6 Q 6.17 -14.39 7.98 -14.39 L 7.98 -14.39 Q 7.98 -7.18 9.5 -5.66 L 9.5 -5.66 Q 10.1 -5.06 11.82 -5.06 L 11.82 -5.06 Q 15.73 -5.06 18.63 -7.25 Q 21.53 -9.44 21.53 -12.45 L 21.53 -12.45 Q 21.53 -14.48 19.64 -15.99 Q 17.75 -17.51 15.04 -18.65 Q 12.33 -19.78 9.64 -21.03 Q 6.94 -22.28 5.05 -24.47 Q 3.16 -26.66 3.16 -29.64 L 3.16 -29.64 Q 3.16 -34.1 8.5 -37.8 Q 13.85 -41.49 23.98 -41.49 L 23.98 -41.49 Q 26.36 -41.49 26.66 -41.16 L 26.66 -41.16 Q 26.72 -40.98 26.72 -40.28 Q 26.72 -39.58 26.3 -37.57 Q 25.88 -35.56 25.2 -34.82 L 25.2 -34.82 Q 24.22 -34.97 22.96 -34.97 L 22.96 -34.97 Q 22.9 -34.97 22.82 -34.97 L 22.82 -34.97 Q 21.56 -34.97 19.9 -34.73 L 19.9 -34.73 Q 18.11 -34.49 16.19 -33.96 Q 14.27 -33.42 13.05 -32.33 Q 11.82 -31.24 11.82 -29.68 Q 11.82 -28.12 13.69 -26.93 Q 15.55 -25.73 18.17 -24.74 Q 20.79 -23.74 23.46 -22.46 Q 26.12 -21.18 27.97 -18.71 Q 29.81 -16.23 29.81 -12.75 L 29.81 -12.75 Q 29.81 -6.58 23.93 -2.28 Q 18.05 2.03 9.08 2.03 L 9.08 2.03 Q 4.56 2.03 2.38 1.52 L 2.38 1.52 Q 1.85 0.98 1.85 -5.03 Z M 36.87 -2.14 Q 33.45 -5.87 33.45 -11.81 Q 33.45 -17.75 37.69 -22.35 Q 41.94 -26.96 49.15 -26.96 L 49.15 -26.96 Q 52.06 -26.84 52.3 -26.6 Q 52.54 -26.36 52.54 -25.44 Q 52.54 -24.51 52.36 -23.41 L 52.36 -23.41 Q 53.29 -23.41 54.72 -22.35 Q 56.15 -21.3 57.07 -20.19 Q 57.99 -19.09 58.66 -17.11 Q 59.33 -15.13 59.33 -12.69 L 59.33 -12.69 Q 59.33 -6.88 55.82 -2.65 Q 52.3 1.58 46.3 1.58 Q 40.3 1.58 36.87 -2.14 Z M 40.42 -11.88 L 40.42 -11.88 Q 40.42 -7.12 43.46 -5.3 L 43.46 -5.3 Q 44.59 -4.56 46.58 -4.56 L 46.58 -4.56 Q 46.58 -4.59 46.64 -4.59 L 46.64 -4.59 Q 48.67 -4.59 50.49 -6.48 Q 52.3 -8.37 52.3 -12.08 Q 52.3 -15.79 50.43 -16.95 L 50.43 -16.95 Q 49.03 -17.87 47.69 -17.87 L 47.69 -17.87 L 47.18 -17.87 Q 47.06 -18.11 47.06 -18.91 Q 47.06 -19.72 47.24 -20.43 L 47.24 -20.43 Q 44.74 -20.43 42.58 -18.18 Q 40.42 -15.94 40.42 -11.88 Z M 64.19 1.4 L 64.19 1.4 Q 64.6 -1.34 64.63 -7.63 L 64.63 -7.63 L 64.46 -21.36 Q 64.46 -25.14 64.75 -25.44 L 64.75 -25.44 Q 65.44 -26.12 67.08 -26.63 Q 68.71 -27.13 70.14 -27.13 Q 71.57 -27.13 71.57 -26.84 L 71.57 -26.84 Q 71.4 -25.38 71.4 -23.92 Q 71.4 -22.46 71.57 -22.46 L 71.57 -22.46 L 71.75 -22.58 Q 72.05 -22.99 72.68 -23.63 Q 73.3 -24.27 75.28 -25.35 Q 77.26 -26.42 79.06 -26.42 Q 80.87 -26.42 82.1 -25.78 Q 83.34 -25.14 84.14 -24.22 Q 84.95 -23.29 85.53 -21.59 Q 86.11 -19.9 86.41 -18.42 Q 86.7 -16.95 86.88 -14.51 L 86.88 -14.51 Q 87.06 -11.14 87.06 -5.99 L 87.06 -5.99 L 86.88 1.16 Q 86.88 1.58 84.87 1.98 Q 82.86 2.38 81.64 2.38 L 81.64 2.38 L 79.65 2.08 Q 80.24 -3.4 80.24 -8.56 Q 80.24 -13.73 79.57 -16.32 Q 78.9 -18.91 76.89 -18.91 Q 74.88 -18.91 73.63 -17.81 Q 72.38 -16.71 72.02 -15.61 L 72.02 -15.61 L 71.57 -14.56 L 71.57 -13.73 L 71.63 -11.47 L 71.63 -6.82 Q 71.63 -0.3 71.4 -0.06 L 71.4 -0.06 Q 70.59 0.74 68.64 1.16 Q 66.69 1.58 65.44 1.58 Q 64.19 1.58 64.19 1.4 Z M 91.32 -9.32 L 91.32 -9.32 Q 91.32 -16.2 95.6 -21.07 Q 99.87 -25.94 107.79 -26.18 L 107.79 -26.18 L 107.67 -35.21 Q 107.67 -38.99 107.85 -39.17 L 107.85 -39.17 Q 108.6 -39.91 110.28 -40.6 Q 111.96 -41.28 113.48 -41.28 Q 115 -41.28 115 -41.04 L 115 -41.04 Q 114.52 -30.92 114.52 -19.51 Q 114.52 -8.1 114.88 -5.93 L 114.88 -5.93 Q 115.3 -2.62 116.91 -1.04 L 116.91 -1.04 Q 116.91 -0.45 114.38 0.88 Q 111.84 2.2 110.06 2.2 L 110.06 2.2 Q 109.88 2.2 109.52 1.7 L 109.52 1.7 Q 108.36 0.18 108.12 -2.44 L 108.12 -2.44 Q 108.12 -2.62 108 -2.62 L 108 -2.62 L 107.79 -2.5 Q 105.23 1.16 100.17 1.16 L 100.17 1.16 Q 96.09 1.16 93.7 -2.07 Q 91.32 -5.3 91.32 -9.32 Z M 98.65 -11.05 L 98.65 -11.05 Q 98.65 -8.79 99.72 -7.36 Q 100.79 -5.93 102.95 -5.93 Q 105.11 -5.93 106.42 -7.82 Q 107.73 -9.71 107.73 -10.78 L 107.73 -10.78 Q 107.73 -17.57 107.91 -19.78 L 107.91 -19.78 Q 107.91 -19.9 107.26 -19.9 L 107.26 -19.9 L 107.02 -19.9 Q 103.12 -19.9 100.88 -17.39 Q 98.65 -14.89 98.65 -11.05 Z M 124.08 -2.2 Q 120.84 -5.81 120.84 -11.81 Q 120.84 -17.81 124.73 -22.23 Q 128.61 -26.66 135.61 -26.66 L 135.61 -26.66 Q 138.47 -26.66 140.88 -25.14 Q 143.3 -23.62 143.3 -19.81 Q 143.3 -15.99 139.98 -12.27 Q 136.65 -8.55 130.91 -6.58 L 130.91 -6.58 Q 130.91 -5.84 132.41 -5.39 Q 133.91 -4.94 135.37 -4.94 L 135.37 -4.94 Q 140.02 -4.94 142.7 -6.58 L 142.7 -6.58 Q 142.76 -6.64 142.88 -6.64 Q 143 -6.64 143 -5.48 L 143 -5.48 Q 143 -1.97 141.48 0 L 141.48 0 Q 139.39 1.4 133.36 1.4 Q 127.33 1.4 124.08 -2.2 Z M 127.99 -12.45 L 127.99 -12.45 Q 127.99 -11.59 128.23 -11.59 L 128.23 -11.59 Q 130.43 -11.65 133.29 -14.12 Q 136.15 -16.59 136.15 -19.39 L 136.15 -19.39 Q 136.15 -21.15 134.27 -21.18 L 134.27 -21.18 Q 131.77 -21.18 129.88 -18.62 Q 127.99 -16.05 127.99 -12.45 Z M 147.56 1.4 L 147.56 1.4 Q 147.97 -0.95 147.97 -8.22 L 147.97 -8.22 L 147.85 -22.07 Q 147.85 -25.67 148.12 -25.91 L 148.12 -25.91 Q 148.81 -26.6 150.44 -27.12 Q 152.08 -27.64 153.51 -27.64 Q 154.94 -27.64 154.94 -27.34 L 154.94 -27.34 Q 154.76 -25.7 154.76 -23.59 Q 154.76 -21.48 154.88 -21.48 Q 155 -21.48 155.12 -21.62 Q 155.24 -21.77 155.52 -22.12 Q 155.81 -22.46 156.68 -23.31 Q 157.56 -24.16 158.61 -24.75 L 158.61 -24.75 Q 161.23 -26.45 164.21 -26.48 L 164.21 -26.48 Q 164.68 -25.67 164.71 -24.04 L 164.71 -24.04 Q 164.71 -20.55 163.85 -19.09 L 163.85 -19.09 L 163.61 -18.62 L 162.81 -18.73 Q 158.43 -18.73 155.93 -15.13 L 155.93 -15.13 Q 154.94 -13.67 154.94 -12.93 L 154.94 -12.93 L 154.94 -7.57 Q 154.94 -0.24 154.76 -0.06 L 154.76 -0.06 Q 153.07 1.58 148.06 1.58 L 148.06 1.58 Q 147.59 1.58 147.56 1.4 Z" stroke-linecap="round" />
</g>
</g>
</g>
</svg>